<?xml version="1.0" encoding="UTF-8" standalone="no"?>
<!-- Created with Inkscape (http://www.inkscape.org/) -->

<svg
   version="1.1"
   id="svg1"
   width="307.17828"
   height="147.30701"
   viewBox="0 0 307.17828 147.30701"
   sodipodi:docname="Optics A EM spectrum, Double Slit-problems.svg"
   inkscape:version="1.3 (0e150ed6c4, 2023-07-21)"
   xmlns:inkscape="http://www.inkscape.org/namespaces/inkscape"
   xmlns:sodipodi="http://sodipodi.sourceforge.net/DTD/sodipodi-0.dtd"
   xmlns="http://www.w3.org/2000/svg"
   xmlns:svg="http://www.w3.org/2000/svg">
  <sodipodi:namedview
     id="namedview1"
     pagecolor="#ffffff"
     bordercolor="#000000"
     borderopacity="0.25"
     inkscape:showpageshadow="2"
     inkscape:pageopacity="0.0"
     inkscape:pagecheckerboard="0"
     inkscape:deskcolor="#d1d1d1"
     inkscape:zoom="1.7255553"
     inkscape:cx="241.08181"
     inkscape:cy="110.39924"
     inkscape:window-width="1920"
     inkscape:window-height="1006"
     inkscape:window-x="0"
     inkscape:window-y="0"
     inkscape:window-maximized="1"
     inkscape:current-layer="g1">
    <inkscape:page
       x="0"
       y="0"
       inkscape:label="1"
       id="page1"
       width="307.17828"
       height="147.30701"
       margin="0"
       bleed="0"
       inkscape:export-filename="Optics A EM spectrum, Double Slit-problems.pdf"
       inkscape:export-xdpi="96"
       inkscape:export-ydpi="96" />
  </sodipodi:namedview>
  <defs
     id="defs1" />
  <g
     id="g1"
     inkscape:groupmode="layer"
     inkscape:label="1">
    <path
       id="path28"
       d="m 280.65319,6.6379501 c 0,-0.73334 -0.59466,-1.328 -1.328,-1.328 -0.73333,0 -1.32933,0.59466 -1.32933,1.328 0,0.73333 0.596,1.328 1.32933,1.328 0.73334,0 1.328,-0.59467 1.328,-1.328"
       style="fill:#000000;fill-opacity:1;fill-rule:nonzero;stroke:none;stroke-width:0.133333" />
    <path
       id="path29"
       d="m 37.298532,118.12061 v -13.384 h 2.258667 v 26.76667 h -2.258667"
       style="fill:#00ffff;fill-opacity:1;fill-rule:nonzero;stroke:none;stroke-width:0.133333" />
    <path
       id="path30"
       d="m 37.298532,118.12061 v -13.384 h 2.258667 v 26.76667 h -2.258667 z"
       style="fill:none;stroke:#000000;stroke-width:1.32835;stroke-linecap:butt;stroke-linejoin:miter;stroke-miterlimit:10;stroke-dasharray:none;stroke-opacity:1" />
    <path
       id="path31"
       d="m 37.298532,90.32461 v -9.49733 h 2.258667 v 18.99466 h -2.258667"
       style="fill:#00ffff;fill-opacity:1;fill-rule:nonzero;stroke:none;stroke-width:0.133333" />
    <path
       id="path32"
       d="m 37.298532,90.32461 v -9.49733 h 2.258667 v 18.99466 h -2.258667 z"
       style="fill:none;stroke:#000000;stroke-width:1.32835;stroke-linecap:butt;stroke-linejoin:miter;stroke-miterlimit:10;stroke-dasharray:none;stroke-opacity:1" />
    <path
       id="path33"
       d="M 37.298532,56.55128 V 37.18995 h 2.258667 v 38.72133 h -2.258667"
       style="fill:#00ffff;fill-opacity:1;fill-rule:nonzero;stroke:none;stroke-width:0.133333" />
    <path
       id="path34"
       d="M 37.298532,56.55128 V 37.18995 h 2.258667 v 38.72133 h -2.258667 z"
       style="fill:none;stroke:#000000;stroke-width:1.32835;stroke-linecap:butt;stroke-linejoin:miter;stroke-miterlimit:10;stroke-dasharray:none;stroke-opacity:1" />
    <path
       id="path35"
       d="M 279.98919,72.39128 V 1.3246101 h 0.464 V 143.45928 h -0.464 z"
       style="fill:none;stroke:#000000;stroke-width:1.32835;stroke-linecap:butt;stroke-linejoin:miter;stroke-miterlimit:10;stroke-dasharray:none;stroke-opacity:1" />
    <path
       id="path36"
       d="m 270.47586,134.55928 -4.17333,-0.53867 -4.72667,-0.53733 -5.12533,-0.53867 -5.35467,-0.53733 -5.41067,-0.53734 -5.28666,-0.53733 -4.98934,-0.53733 -4.52933,-0.53867 -3.92133,-0.53733 -3.18534,-0.53867 -2.34133,-0.53733 -1.424,-0.53734 -0.45867,-0.53733 0.52134,-0.53867 1.48533,-0.53733 2.4,-0.53867 3.23467,-0.53733 3.96533,-0.53733 4.564,-0.53734 5.01467,-0.53866 5.3,-0.53734 5.412,-0.53733 5.34533,-0.53867 5.104,-0.53733 4.696,-0.53733 4.13333,-0.53734 3.43334,-0.53866 2.624,-0.53734 1.728,-0.53733 0.772,-0.53867 -0.20534,-0.53733 -1.17733,-0.53733 -2.112,-0.53867 -2.97467,-0.53733 -3.744,-0.53734 -4.38533,-0.53866 -4.88667,-0.53734 -5.22666,-0.53733 -5.39467,-0.53733 -5.38667,-0.53867 -5.2,-0.53733 -4.84533,-0.53734 -4.33067,-0.53866 -3.67333,-0.53734 -2.896,-0.53733 -2.02533,-0.53867 -1.08534,-0.53733 -0.11066,-0.53733 0.86666,-0.53734 1.816,-0.53866 2.70534,-0.53734 3.508,-0.53733 4.19333,-0.53867 4.74133,-0.53733 5.136,-0.53733 5.35867,-0.53867 5.408,-0.53733 5.28,-0.53734 4.97867,-0.53866 4.51333,-0.53734 3.9,-0.53733 3.15867,-0.53733 2.31466,-0.53867 1.39334,-0.53733 0.428,-0.53734 -0.55334,-0.53866 -1.51333,-0.53734 -2.428,-0.53733 -3.26,-0.53867 -3.98533,-0.53733 -4.58134,-0.53733 -5.02533,-0.53867 -5.30667,-0.53733 -5.412,-0.53734 -5.34,-0.53733 -5.09466,-0.53867 -4.68,-0.53733 -4.11334,-0.53733 -3.41066,-0.53867 -2.596,-0.53733 -1.69734,-0.53734 -0.744,-0.53733 0.23734,-0.53867 1.208,-0.53733 2.14,-0.53867 3.00133,-0.53733 3.764,-0.53733 4.404,-0.53733 4.9,-0.53867 5.23467,-0.53733 5.39733,-0.53867 5.38267,-0.53733 5.19333,-0.53734 4.83067,-0.53733 4.312,-0.53733 3.65066,-0.53867 2.87067,-0.53733 1.99467,-0.53867 1.056,-0.53733 0.08,-0.53734 -0.89734,-0.53733 -1.84533,-0.53867 -2.732,-0.53733 -3.53067,-0.53867 -4.21333,-0.53733 -4.75733,-0.53733 -5.144,-0.53734 -5.364,-0.53733 -5.40667,-0.53867 -5.27333,-0.53733 -4.96534,-0.53867 -4.496,-0.53733 -3.87866,-0.53733 -3.13334,-0.53734 -2.28666,-0.53866 -1.364,-0.53734 -0.39734,-0.53733 0.58267,-0.53867 1.54533,-0.53733 2.45467,-0.53733 3.284,-0.53734 4.00667,-0.53866 4.59733,-0.53734 5.03733,-0.53866 5.312,-0.53734 5.41334,-0.53733 5.33466,-0.53733 5.084,-0.53867 4.664,-0.53733 4.09334,-0.53734 3.38666,-0.53866 2.56934,-0.53734 1.668,-0.53733 0.712,-0.53867 -0.26667,-0.53733 -1.23867,-0.53733 -2.168,-0.53867 -3.02666,-0.53733 -3.78667,-0.53734 -4.42267,-0.53733 -4.912,-0.53867 -5.24266,-0.53733 -5.4,-0.53733 -5.37867,-0.53867 -5.184,-0.53733 -4.81733,-0.53734 -4.29334,-0.53866 -3.628,-0.53734 -2.844,-0.53733 -1.96666,-0.53733 -1.02534,-0.53867 -0.0493,-0.53733 0.928,-0.53734 1.87333,-0.53866 2.76,-0.53734 3.55334,-0.53733 4.232,-0.53867 4.772,-0.53733 5.15333,-0.53733 5.36933,-0.53867 5.404,-0.53733 5.26667,-0.53734 4.95333,-0.53733 4.47867,-0.53867 3.85733,-0.53733 3.10934,-0.53733 2.25733,-0.53867 1.33467,-0.53733 0.36666,-0.53734 -0.61466,-0.53733 -1.57334,-0.53867 -2.48266,-0.53733 -3.308,-0.53867 -4.028,-0.53733 -4.61334,-0.53733 -5.04933,-0.53734 -5.31733,-0.53866 -5.41334,-0.53734 -5.32933,-0.53733 -5.07333,-0.53867 -4.64934,-0.53733 -4.072,-0.53733 -3.36266,-0.53734 -2.54267,-0.53866 -1.63867,-0.53734 -0.68133,-0.53866 0.29733,-0.53734 1.26934,-0.53733 2.196,-0.53733 3.052,-0.53867 3.80933,-0.53733 4.44,-0.53734 4.92533,-0.53866 5.25067,-0.53734 5.40133,-0.53733 5.376,-0.53733 5.17467,-0.53867 4.80267,-0.53733 4.27466,-0.53867 3.60534,-0.53733 2.81733,-0.53734 1.93733,-0.53733 0.99467,-0.53867 0.0187,-0.53733 -0.95734,-0.53867 -1.904,-0.53733 -2.78533,-0.53733 -3.57733,-0.53734 -4.252,-0.53733 -4.78534,-0.53867 -5.16266,-0.53733 -5.372,-0.53867 -5.404,-0.53733 -5.25867,-0.53733 -4.94133,-0.53734 -4.46134,-0.53866 -3.83466,-0.53734 -3.084,-0.53733 -2.22934,-0.53867 -1.30533,-0.53733 -0.33467,-0.53733 0.644,-0.53867 1.604,-0.53733 2.50934,-0.53734 3.33333,-0.53866 4.048,-0.53734 4.63067,-0.53733 5.05866,-0.53733 5.324,-0.53867 5.41334,-0.53733 5.324,-0.53734 5.06266,-0.5386599 4.63334,-0.53734 4.052,-0.53733 3.33733,-0.53867 2.51467,-0.53733 1.60933,-0.53733 0.652,-0.53734 -0.32933,-0.53866 -1.29867,-0.53734 -2.224,-0.53733 -3.07867,-0.53867 -3.83066,-0.53733 -4.45867,-0.53733 -4.93867,-0.53867 -5.256,-0.53733 -5.404,-0.53734 -5.372,-0.53866 -5.16533,-0.53734002 v 0 h 41.36933 V 134.55928"
       style="fill:#00ffff;fill-opacity:1;fill-rule:nonzero;stroke:#ffffff;stroke-width:1.06268;stroke-linecap:butt;stroke-linejoin:miter;stroke-miterlimit:10;stroke-dasharray:none;stroke-opacity:1" />
    <path
       id="path37"
       d="m 270.47586,134.55928 -4.17333,-0.53867 -4.72667,-0.53733 -5.12533,-0.53867 -5.35467,-0.53733 -5.41067,-0.53734 -5.28666,-0.53733 -4.98934,-0.53733 -4.52933,-0.53867 -3.92133,-0.53733 -3.18534,-0.53867 -2.34133,-0.53733 -1.424,-0.53734 -0.45867,-0.53733 0.52134,-0.53867 1.48533,-0.53733 2.4,-0.53867 3.23467,-0.53733 3.96533,-0.53733 4.564,-0.53734 5.01467,-0.53866 5.3,-0.53734 5.412,-0.53733 5.34533,-0.53867 5.104,-0.53733 4.696,-0.53733 4.13333,-0.53734 3.43334,-0.53866 2.624,-0.53734 1.728,-0.53733 0.772,-0.53867 -0.20534,-0.53733 -1.17733,-0.53733 -2.112,-0.53867 -2.97467,-0.53733 -3.744,-0.53734 -4.38533,-0.53866 -4.88667,-0.53734 -5.22666,-0.53733 -5.39467,-0.53733 -5.38667,-0.53867 -5.2,-0.53733 -4.84533,-0.53734 -4.33067,-0.53866 -3.67333,-0.53734 -2.896,-0.53733 -2.02533,-0.53867 -1.08534,-0.53733 -0.11066,-0.53733 0.86666,-0.53734 1.816,-0.53866 2.70534,-0.53734 3.508,-0.53733 4.19333,-0.53867 4.74133,-0.53733 5.136,-0.53733 5.35867,-0.53867 5.408,-0.53733 5.28,-0.53734 4.97867,-0.53866 4.51333,-0.53734 3.9,-0.53733 3.15867,-0.53733 2.31466,-0.53867 1.39334,-0.53733 0.428,-0.53734 -0.55334,-0.53866 -1.51333,-0.53734 -2.428,-0.53733 -3.26,-0.53867 -3.98533,-0.53733 -4.58134,-0.53733 -5.02533,-0.53867 -5.30667,-0.53733 -5.412,-0.53734 -5.34,-0.53733 -5.09466,-0.53867 -4.68,-0.53733 -4.11334,-0.53733 -3.41066,-0.53867 -2.596,-0.53733 -1.69734,-0.53734 -0.744,-0.53733 0.23734,-0.53867 1.208,-0.53733 2.14,-0.53867 3.00133,-0.53733 3.764,-0.53733 4.404,-0.53733 4.9,-0.53867 5.23467,-0.53733 5.39733,-0.53867 5.38267,-0.53733 5.19333,-0.53734 4.83067,-0.53733 4.312,-0.53733 3.65066,-0.53867 2.87067,-0.53733 1.99467,-0.53867 1.056,-0.53733 0.08,-0.53734 -0.89734,-0.53733 -1.84533,-0.53867 -2.732,-0.53733 -3.53067,-0.53867 -4.21333,-0.53733 -4.75733,-0.53733 -5.144,-0.53734 -5.364,-0.53733 -5.40667,-0.53867 -5.27333,-0.53733 -4.96534,-0.53867 -4.496,-0.53733 -3.87866,-0.53733 -3.13334,-0.53734 -2.28666,-0.53866 -1.364,-0.53734 -0.39734,-0.53733 0.58267,-0.53867 1.54533,-0.53733 2.45467,-0.53733 3.284,-0.53734 4.00667,-0.53866 4.59733,-0.53734 5.03733,-0.53866 5.312,-0.53734 5.41334,-0.53733 5.33466,-0.53733 5.084,-0.53867 4.664,-0.53733 4.09334,-0.53734 3.38666,-0.53866 2.56934,-0.53734 1.668,-0.53733 0.712,-0.53867 -0.26667,-0.53733 -1.23867,-0.53733 -2.168,-0.53867 -3.02666,-0.53733 -3.78667,-0.53734 -4.42267,-0.53733 -4.912,-0.53867 -5.24266,-0.53733 -5.4,-0.53733 -5.37867,-0.53867 -5.184,-0.53733 -4.81733,-0.53734 -4.29334,-0.53866 -3.628,-0.53734 -2.844,-0.53733 -1.96666,-0.53733 -1.02534,-0.53867 -0.0493,-0.53733 0.928,-0.53734 1.87333,-0.53866 2.76,-0.53734 3.55334,-0.53733 4.232,-0.53867 4.772,-0.53733 5.15333,-0.53733 5.36933,-0.53867 5.404,-0.53733 5.26667,-0.53734 4.95333,-0.53733 4.47867,-0.53867 3.85733,-0.53733 3.10934,-0.53733 2.25733,-0.53867 1.33467,-0.53733 0.36666,-0.53734 -0.61466,-0.53733 -1.57334,-0.53867 -2.48266,-0.53733 -3.308,-0.53867 -4.028,-0.53733 -4.61334,-0.53733 -5.04933,-0.53734 -5.31733,-0.53866 -5.41334,-0.53734 -5.32933,-0.53733 -5.07333,-0.53867 -4.64934,-0.53733 -4.072,-0.53733 -3.36266,-0.53734 -2.54267,-0.53866 -1.63867,-0.53734 -0.68133,-0.53866 0.29733,-0.53734 1.26934,-0.53733 2.196,-0.53733 3.052,-0.53867 3.80933,-0.53733 4.44,-0.53734 4.92533,-0.53866 5.25067,-0.53734 5.40133,-0.53733 5.376,-0.53733 5.17467,-0.53867 4.80267,-0.53733 4.27466,-0.53867 3.60534,-0.53733 2.81733,-0.53734 1.93733,-0.53733 0.99467,-0.53867 0.0187,-0.53733 -0.95734,-0.53867 -1.904,-0.53733 -2.78533,-0.53733 -3.57733,-0.53734 -4.252,-0.53733 -4.78534,-0.53867 -5.16266,-0.53733 -5.372,-0.53867 -5.404,-0.53733 -5.25867,-0.53733 -4.94133,-0.53734 -4.46134,-0.53866 -3.83466,-0.53734 -3.084,-0.53733 -2.22934,-0.53867 -1.30533,-0.53733 -0.33467,-0.53733 0.644,-0.53867 1.604,-0.53733 2.50934,-0.53734 3.33333,-0.53866 4.048,-0.53734 4.63067,-0.53733 5.05866,-0.53733 5.324,-0.53867 5.41334,-0.53733 5.324,-0.53734 5.06266,-0.5386599 4.63334,-0.53734 4.052,-0.53733 3.33733,-0.53867 2.51467,-0.53733 1.60933,-0.53733 0.652,-0.53734 -0.32933,-0.53866 -1.29867,-0.53734 -2.224,-0.53733 -3.07867,-0.53867 -3.83066,-0.53733 -4.45867,-0.53733 -4.93867,-0.53867 -5.256,-0.53733 -5.404,-0.53734 -5.372,-0.53866 -5.16533,-0.53734002"
       style="fill:none;stroke:#00ff00;stroke-width:1.32835;stroke-linecap:butt;stroke-linejoin:miter;stroke-miterlimit:10;stroke-dasharray:none;stroke-opacity:1" />
    <path
       id="path38"
       d="M 159.7732,54.45928 279.32519,6.6379501 40.221199,78.36861 v 23.91067 z"
       style="fill:#ffffff;fill-opacity:1;fill-rule:nonzero;stroke:#ffffff;stroke-width:0.797011;stroke-linecap:butt;stroke-linejoin:miter;stroke-miterlimit:10;stroke-dasharray:none;stroke-opacity:1" />
    <path
       id="path39"
       d="M 40.221199,90.32461 H 279.32519"
       style="fill:none;stroke:#000000;stroke-width:0.797011;stroke-linecap:butt;stroke-linejoin:miter;stroke-miterlimit:10;stroke-dasharray:12.0895, 5.37311, 0, 0;stroke-dashoffset:0;stroke-opacity:1" />
    <path
       id="path40"
       d="m 92.597198,84.90595 7.4,-6.53734 -9.866667,0.37067 4.686667,1.70267"
       style="fill:#000000;fill-opacity:1;fill-rule:nonzero;stroke:none;stroke-width:0.133333" />
    <path
       id="path41"
       d="M 40.221199,102.27928 94.817198,80.44195"
       style="fill:none;stroke:#000000;stroke-width:0.797011;stroke-linecap:butt;stroke-linejoin:miter;stroke-miterlimit:10;stroke-dasharray:none;stroke-opacity:1" />
    <path
       id="path42"
       d="m 182.25986,49.04061 7.40134,-6.536 -9.868,0.36934 4.688,1.70266"
       style="fill:#000000;fill-opacity:1;fill-rule:nonzero;stroke:none;stroke-width:0.133333" />
    <path
       id="path43"
       d="M 40.221199,102.27928 184.4812,44.57661"
       style="fill:none;stroke:#000000;stroke-width:0.797011;stroke-linecap:butt;stroke-linejoin:miter;stroke-miterlimit:10;stroke-dasharray:none;stroke-opacity:1" />
    <path
       id="path44"
       d="M 40.221199,102.27928 279.32519,6.6379501"
       style="fill:none;stroke:#000000;stroke-width:0.797011;stroke-linecap:butt;stroke-linejoin:miter;stroke-miterlimit:10;stroke-dasharray:none;stroke-opacity:1" />
    <path
       id="path45"
       d="m 92.045198,66.28995 7.952,-5.85334 -9.861334,-0.50933 4.517334,2.11333"
       style="fill:#000000;fill-opacity:1;fill-rule:nonzero;stroke:none;stroke-width:0.133333" />
    <path
       id="path46"
       d="m 40.221199,78.36861 54.431999,-16.328"
       style="fill:none;stroke:#000000;stroke-width:0.797011;stroke-linecap:butt;stroke-linejoin:miter;stroke-miterlimit:10;stroke-dasharray:none;stroke-opacity:1" />
    <path
       id="path47"
       d="m 181.7092,39.38995 7.952,-5.852 -9.86134,-0.50934 4.51734,2.112"
       style="fill:#000000;fill-opacity:1;fill-rule:nonzero;stroke:none;stroke-width:0.133333" />
    <path
       id="path48"
       d="M 40.221199,78.36861 184.3172,35.14061"
       style="fill:none;stroke:#000000;stroke-width:0.797011;stroke-linecap:butt;stroke-linejoin:miter;stroke-miterlimit:10;stroke-dasharray:none;stroke-opacity:1" />
    <path
       id="path49"
       d="M 40.221199,78.36861 279.32519,6.6379501"
       style="fill:none;stroke:#000000;stroke-width:0.797011;stroke-linecap:butt;stroke-linejoin:miter;stroke-miterlimit:10;stroke-dasharray:none;stroke-opacity:1" />
    <path
       id="path50"
       d="M 40.221199,90.32461 231.50386,23.37528"
       style="fill:none;stroke:#000000;stroke-width:0.797011;stroke-linecap:butt;stroke-linejoin:miter;stroke-miterlimit:10;stroke-dasharray:5.51456, 12.4078, 0, 0;stroke-dashoffset:0;stroke-opacity:1" />
    <path
       id="path51"
       d="m 295.53053,90.32461 c 0,-1.02667 -0.83334,-1.86 -1.86,-1.86 -1.02667,0 -1.86,0.83333 -1.86,1.86 0,1.02667 0.83333,1.86 1.86,1.86 1.02666,0 1.86,-0.83333 1.86,-1.86"
       style="fill:#000000;fill-opacity:1;fill-rule:nonzero;stroke:none;stroke-width:0.133333" />
    <path
       id="path52"
       d="m 296.32786,6.9046101 h -5.31333"
       style="fill:none;stroke:#000000;stroke-width:0.531341;stroke-linecap:butt;stroke-linejoin:miter;stroke-miterlimit:10;stroke-dasharray:none;stroke-opacity:1" />
    <path
       id="path53"
       d="m 296.12786,13.78461 -2.45733,-6.8799999 -2.45734,6.8799999 2.45734,-2.752"
       style="fill:#000000;fill-opacity:1;fill-rule:nonzero;stroke:none;stroke-width:0.133333" />
    <path
       id="path54"
       d="M 293.67053,88.59794 V 11.03261"
       style="fill:none;stroke:#000000;stroke-width:0.531341;stroke-linecap:butt;stroke-linejoin:miter;stroke-miterlimit:10;stroke-dasharray:none;stroke-opacity:1" />
    <path
       id="path55"
       d="m 285.52519,48.51928 v -8.96667 h 16.35734 v 17.93334 h -16.35734"
       style="fill:#ffffff;fill-opacity:1;fill-rule:nonzero;stroke:none;stroke-width:0.133333" />
    <text
       id="text55"
       xml:space="preserve"
       x="289.51053"
       y="50.401951"
       style="font-style:normal;font-variant:normal;font-weight:normal;font-stretch:normal;font-size:16px;font-family:CMMI10;-inkscape-font-specification:'CMMI10, Normal';font-variant-ligatures:normal;font-variant-caps:normal;font-variant-numeric:normal;font-variant-east-asian:normal;stroke-width:1.33333"><tspan
         style="font-style:normal;font-variant:normal;font-weight:normal;font-stretch:normal;font-size:16px;font-family:CMMI10;-inkscape-font-specification:'CMMI10, Normal';font-variant-ligatures:normal;font-variant-caps:normal;font-variant-numeric:normal;font-variant-east-asian:normal;writing-mode:lr-tb;fill:#000000;fill-opacity:1;fill-rule:nonzero;stroke:none;stroke-width:1.33333"
         x="289.51053"
         y="50.401951"
         id="tspan55">y</tspan></text>
    <text
       id="text55-9"
       xml:space="preserve"
       x="15.513643"
       y="95.388405"
       style="font-style:normal;font-variant:normal;font-weight:normal;font-stretch:normal;font-size:16px;font-family:CMMI10;-inkscape-font-specification:'CMMI10, Normal';font-variant-ligatures:normal;font-variant-caps:normal;font-variant-numeric:normal;font-variant-east-asian:normal;stroke-width:1.33333"><tspan
         sodipodi:role="line"
         id="tspan2"
         x="15.513643"
         y="95.388405">d<tspan
   style="font-style:normal;font-variant:normal;font-weight:normal;font-stretch:normal;font-size:16px;font-family:CMMI10;-inkscape-font-specification:'CMMI10, Normal';font-variant-ligatures:normal;font-variant-caps:normal;font-variant-numeric:normal;font-variant-east-asian:normal;writing-mode:lr-tb;fill:#000000;fill-opacity:1;fill-rule:nonzero;stroke:none;stroke-width:1.33333"
   x="15.513643"
   y="95.388405"
   id="tspan55-6" /></tspan></text>
    <path
       id="path56"
       d="m 40.486532,135.48861 v 5.31333"
       style="fill:none;stroke:#000000;stroke-width:0.531341;stroke-linecap:butt;stroke-linejoin:miter;stroke-miterlimit:10;stroke-dasharray:none;stroke-opacity:1" />
    <path
       id="path57"
       d="m 47.367865,135.68728 -6.881333,2.45733 6.881333,2.45733 -2.753333,-2.45733"
       style="fill:#000000;fill-opacity:1;fill-rule:nonzero;stroke:none;stroke-width:0.133333" />
    <path
       id="path58"
       d="m 272.44386,140.60194 6.88133,-2.45733 -6.88133,-2.45733 2.752,2.45733"
       style="fill:#000000;fill-opacity:1;fill-rule:nonzero;stroke:none;stroke-width:0.133333" />
    <path
       id="path59"
       d="M 44.614532,138.14461 H 275.19586"
       style="fill:none;stroke:#000000;stroke-width:0.531341;stroke-linecap:butt;stroke-linejoin:miter;stroke-miterlimit:10;stroke-dasharray:none;stroke-opacity:1" />
    <path
       id="path60"
       d="m 136.74786,138.12861 v -9.12133 h 46.04934 v 18.24266 h -46.04934"
       style="fill:#ffffff;fill-opacity:1;fill-rule:nonzero;stroke:none;stroke-width:0.133333" />
    <text
       id="text60"
       xml:space="preserve"
       x="154.7332"
       y="143.26462"
       style="font-style:normal;font-variant:normal;font-weight:normal;font-stretch:normal;font-size:16px;font-family:CMMI10;-inkscape-font-specification:'CMMI10, Normal';font-variant-ligatures:normal;font-variant-caps:normal;font-variant-numeric:normal;font-variant-east-asian:normal;stroke-width:1.33333"><tspan
         style="font-style:normal;font-variant:normal;font-weight:normal;font-stretch:normal;font-size:16px;font-family:CMMI10;-inkscape-font-specification:'CMMI10, Normal';font-variant-ligatures:normal;font-variant-caps:normal;font-variant-numeric:normal;font-variant-east-asian:normal;writing-mode:lr-tb;fill:#000000;fill-opacity:1;fill-rule:nonzero;stroke:none;stroke-width:1.33333"
         sodipodi:role="line"
         id="tspan62"
         x="154.7332"
         y="143.26462">L</tspan></text>
    <path
       id="path62"
       d="m 25.609199,102.01394 h 5.313334"
       style="fill:none;stroke:#000000;stroke-width:0.531341;stroke-linecap:butt;stroke-linejoin:miter;stroke-miterlimit:10;stroke-dasharray:none;stroke-opacity:1" />
    <path
       id="path63"
       d="m 25.807866,95.13261 2.458667,6.88133 2.457333,-6.88133 -2.457333,2.75333"
       style="fill:#000000;fill-opacity:1;fill-rule:nonzero;stroke:none;stroke-width:0.133333" />
    <path
       id="path64"
       d="M 30.922533,78.63528 H 25.609199"
       style="fill:none;stroke:#000000;stroke-width:0.531341;stroke-linecap:butt;stroke-linejoin:miter;stroke-miterlimit:10;stroke-dasharray:none;stroke-opacity:1" />
    <path
       id="path65"
       d="m 30.723866,85.51661 -2.457333,-6.88133 -2.458667,6.88133 2.458667,-2.75333"
       style="fill:#000000;fill-opacity:1;fill-rule:nonzero;stroke:none;stroke-width:0.133333" />
    <path
       id="path66"
       d="M 28.266533,97.88594 V 82.76328"
       style="fill:none;stroke:#000000;stroke-width:0.531341;stroke-linecap:butt;stroke-linejoin:miter;stroke-miterlimit:10;stroke-dasharray:none;stroke-opacity:1" />
    <text
       id="text69"
       xml:space="preserve"
       x="21.386534"
       y="73.360634"
       style="font-style:normal;font-variant:normal;font-weight:normal;font-stretch:normal;font-size:14.6667px;font-family:CMMI10;-inkscape-font-specification:'CMMI10, Normal';font-variant-ligatures:normal;font-variant-caps:normal;font-variant-numeric:normal;font-variant-east-asian:normal;stroke-width:1.33333"><tspan
         style="font-style:normal;font-variant:normal;font-weight:normal;font-stretch:normal;font-size:14.6667px;font-family:CMMI10;-inkscape-font-specification:'CMMI10, Normal';font-variant-ligatures:normal;font-variant-caps:normal;font-variant-numeric:normal;font-variant-east-asian:normal;writing-mode:lr-tb;fill:#000000;fill-opacity:1;fill-rule:nonzero;stroke:none;stroke-width:1.33333"
         x="21.386534"
         y="73.360634"
         id="tspan70">S</tspan><tspan
         style="font-style:normal;font-variant:normal;font-weight:normal;font-stretch:normal;font-size:14.6667px;font-family:CMMI10;-inkscape-font-specification:'CMMI10, Normal';font-variant-ligatures:normal;font-variant-caps:normal;font-variant-numeric:normal;font-variant-east-asian:normal;writing-mode:lr-tb;fill:#000000;fill-opacity:1;fill-rule:nonzero;stroke:none;stroke-width:1.33333"
         x="28.906839"
         y="74.640785"
         id="tspan71">1</tspan><tspan
         style="font-style:normal;font-variant:normal;font-weight:normal;font-stretch:normal;font-size:14.6667px;font-family:CMMI10;-inkscape-font-specification:'CMMI10, Normal';font-variant-ligatures:normal;font-variant-caps:normal;font-variant-numeric:normal;font-variant-east-asian:normal;writing-mode:lr-tb;fill:#000000;fill-opacity:1;fill-rule:nonzero;stroke:none;stroke-width:1.33333"
         x="21.386534"
         y="114.00803"
         id="tspan72">S</tspan><tspan
         style="font-style:normal;font-variant:normal;font-weight:normal;font-stretch:normal;font-size:14.6667px;font-family:CMMI10;-inkscape-font-specification:'CMMI10, Normal';font-variant-ligatures:normal;font-variant-caps:normal;font-variant-numeric:normal;font-variant-east-asian:normal;writing-mode:lr-tb;fill:#000000;fill-opacity:1;fill-rule:nonzero;stroke:none;stroke-width:1.33333"
         x="28.906839"
         y="115.28825"
         id="tspan73">2</tspan></text>
    <text
       id="text81"
       xml:space="preserve"
       transform="rotate(-90)"
       x="-139.58194"
       y="291.27988"
       style="font-style:normal;font-variant:normal;font-weight:normal;font-stretch:normal;font-size:14.6667px;font-family:CMR10;-inkscape-font-specification:'CMR10, Normal';font-variant-ligatures:normal;font-variant-caps:normal;font-variant-numeric:normal;font-variant-east-asian:normal;stroke-width:1.33333"><tspan
         style="font-style:normal;font-variant:normal;font-weight:normal;font-stretch:normal;font-size:14.6667px;font-family:CMR10;-inkscape-font-specification:'CMR10, Normal';font-variant-ligatures:normal;font-variant-caps:normal;font-variant-numeric:normal;font-variant-east-asian:normal;writing-mode:lr-tb;fill:#000000;fill-opacity:1;fill-rule:nonzero;stroke:none;stroke-width:1.33333"
         x="-139.58194 -133.18192 -129.02194 -123.26194 -114.14176 -109.98179 -102.6218"
         y="291.27988"
         sodipodi:role="line"
         id="tspan81">viewing</tspan><tspan
         style="font-style:normal;font-variant:normal;font-weight:normal;font-stretch:normal;font-size:14.6667px;font-family:CMR10;-inkscape-font-specification:'CMR10, Normal';font-variant-ligatures:normal;font-variant-caps:normal;font-variant-numeric:normal;font-variant-east-asian:normal;writing-mode:lr-tb;fill:#000000;fill-opacity:1;fill-rule:nonzero;stroke:none;stroke-width:1.33333"
         x="-139.32828 -133.56827 -128.2883 -122.36845 -116.60844 -110.84843"
         y="299.64862"
         sodipodi:role="line"
         id="tspan82">screen</tspan></text>
    <path
       id="path83"
       d="m 282.11453,6.6379501 c 0,-0.88 -0.71334,-1.59334 -1.59467,-1.59334 -0.88,0 -1.59333,0.71334 -1.59333,1.59334 0,0.88133 0.71333,1.59466 1.59333,1.59466 0.88133,0 1.59467,-0.71333 1.59467,-1.59466"
       style="fill:#ffffff;fill-opacity:1;fill-rule:nonzero;stroke:none;stroke-width:0.133333" />
    <path
       id="path84"
       d="m 282.11453,6.6379501 c 0,-0.88 -0.71334,-1.59334 -1.59467,-1.59334 -0.88,0 -1.59333,0.71334 -1.59333,1.59334 0,0.88133 0.71333,1.59466 1.59333,1.59466 0.88133,0 1.59467,-0.71333 1.59467,-1.59466 z"
       style="fill:none;stroke:#000000;stroke-width:1.06268;stroke-linecap:butt;stroke-linejoin:miter;stroke-miterlimit:10;stroke-dasharray:none;stroke-opacity:1" />
    <path
       id="path85"
       d="m 282.11453,90.32461 c 0,-0.88 -0.71334,-1.59333 -1.59467,-1.59333 -0.88,0 -1.59333,0.71333 -1.59333,1.59333 0,0.88 0.71333,1.59467 1.59333,1.59467 0.88133,0 1.59467,-0.71467 1.59467,-1.59467"
       style="fill:#ffffff;fill-opacity:1;fill-rule:nonzero;stroke:none;stroke-width:0.133333" />
    <path
       id="path86"
       d="m 282.11453,90.32461 c 0,-0.88 -0.71334,-1.59333 -1.59467,-1.59333 -0.88,0 -1.59333,0.71333 -1.59333,1.59333 0,0.88 0.71333,1.59467 1.59333,1.59467 0.88133,0 1.59467,-0.71467 1.59467,-1.59467 z"
       style="fill:none;stroke:#000000;stroke-width:1.06268;stroke-linecap:butt;stroke-linejoin:miter;stroke-miterlimit:10;stroke-dasharray:none;stroke-opacity:1" />
  </g>
  <g
     id="g155"
     inkscape:groupmode="layer"
     inkscape:label="2" />
</svg>
